<svg width="24" height="24" viewBox="0 0 24 24" fill="none" xmlns="http://www.w3.org/2000/svg">
<path fill-rule="evenodd" clip-rule="evenodd" d="M13.1 3.89996H10.6C9.60506 3.89996 8.91298 3.90067 8.3745 3.94466C7.84653 3.9878 7.54596 4.06803 7.31963 4.18335C6.83041 4.43262 6.43266 4.83037 6.18339 5.31959C6.06807 5.54592 5.98784 5.84649 5.9447 6.37446C5.90071 6.91294 5.90001 7.60502 5.90001 8.59997V15.4C5.90001 16.3949 5.90071 17.087 5.9447 17.6255C5.98784 18.1534 6.06807 18.454 6.18339 18.6803C6.43266 19.1696 6.83041 19.5673 7.31963 19.8166C7.54596 19.9319 7.84653 20.0121 8.3745 20.0553C8.91298 20.0993 9.60506 20.1 10.6 20.1H14.4C15.3949 20.1 16.087 20.0993 16.6255 20.0553C17.1535 20.0121 17.4541 19.9319 17.6804 19.8166C18.1696 19.5673 18.5674 19.1696 18.8166 18.6803C18.9319 18.454 19.0122 18.1534 19.0553 17.6255C19.0993 17.087 19.1 16.3949 19.1 15.4V9.89996H17.2L17.1646 9.89997C16.6347 9.89998 16.1836 9.89999 15.8131 9.86973C15.424 9.83793 15.0454 9.7683 14.6834 9.58388C14.1378 9.30585 13.6941 8.86221 13.4161 8.31654C13.2317 7.9546 13.162 7.57601 13.1302 7.18685C13.1 6.81642 13.1 6.36524 13.1 5.83537L13.1 5.79997V3.89996ZM18.3272 8.09997L14.9 4.67276V5.79997C14.9 6.37487 14.9007 6.75192 14.9243 7.04027C14.947 7.31812 14.9863 7.43346 15.0199 7.49935C15.1254 7.70633 15.2936 7.87461 15.5006 7.98007C15.5665 8.01365 15.6819 8.053 15.9597 8.07571C16.2481 8.09927 16.6251 8.09997 17.2 8.09997H18.3272ZM14.439 2.16628C14.1595 2.09918 13.8727 2.09954 13.5731 2.09991L13.5059 2.09997H10.6H10.5616C9.6141 2.09996 8.84835 2.09995 8.22792 2.15064C7.58864 2.20287 7.02482 2.31338 6.50245 2.57954C5.67454 3.00138 5.00142 3.67449 4.57958 4.50241C4.31342 5.02477 4.20291 5.58859 4.15068 6.22788C4.09999 6.8483 4.1 7.61406 4.10001 8.56156V8.59997V15.4V15.4384C4.1 16.3859 4.09999 17.1516 4.15068 17.772C4.20291 18.4113 4.31342 18.9752 4.57958 19.4975C5.00142 20.3254 5.67454 20.9986 6.50245 21.4204C7.02482 21.6866 7.58864 21.7971 8.22792 21.8493C8.84835 21.9 9.6141 21.9 10.5616 21.9H10.6H14.4H14.4384C15.3859 21.9 16.1517 21.9 16.7721 21.8493C17.4114 21.7971 17.9752 21.6866 18.4976 21.4204C19.3255 20.9986 19.9986 20.3254 20.4204 19.4975C20.6866 18.9752 20.7971 18.4113 20.8493 17.772C20.9 17.1516 20.9 16.3859 20.9 15.4384V15.4V9.49408L20.9001 9.42687C20.9004 9.12725 20.9008 8.84049 20.8337 8.56102C20.7749 8.31613 20.6779 8.08202 20.5463 7.86729C20.3962 7.62223 20.1932 7.41972 19.981 7.20812L19.9335 7.16062L15.8393 3.06651L15.7919 3.01895C15.5803 2.80682 15.3777 2.6038 15.1327 2.45363C14.9179 2.32204 14.6838 2.22507 14.439 2.16628Z" fill="#98A2B3"/>
</svg>
