<svg width="136" height="40" viewBox="0 0 136 40" fill="none" xmlns="http://www.w3.org/2000/svg">
<path d="M130.963 40H5.03704C2.2667 40 0 37.75 0 35V5.00002C0 2.25 2.26666 0 5.03704 0H130.963C133.733 0 136 2.25 136 5.00002V35C136 37.75 133.733 40 130.963 40" fill="black"/>
<path d="M130.963 0H5.03704C2.2667 0 0 2.25 0 5.00002V35C0 37.75 2.26666 40 5.03704 40H130.963C133.733 40 136 37.75 136 35V5.00002C136 2.25 133.733 0 130.963 0H130.963ZM130.963 0.799975C133.296 0.799975 135.194 2.68441 135.194 5.00002V35C135.194 37.316 133.296 39.2004 130.963 39.2004H5.03704C2.70431 39.2004 0.805934 37.316 0.805934 35V5.00002C0.805934 2.68441 2.70427 0.80002 5.03704 0.80002H130.963" fill="#A6A6A6"/>
<path d="M47.7697 10.2434C47.7697 11.0812 47.5197 11.7484 47.0192 12.2461C46.4505 12.8379 45.7095 13.134 44.7985 13.134C43.9261 13.134 43.1843 12.834 42.5743 12.2332C41.9633 11.6328 41.6583 10.8883 41.6583 9.99997C41.6583 9.11128 41.9633 8.36721 42.5743 7.76633C43.1843 7.16599 43.9261 6.86555 44.7985 6.86555C45.2314 6.86555 45.6458 6.9496 46.0393 7.11719C46.4328 7.28518 46.7484 7.50819 46.9846 7.78746L46.4533 8.31517C46.0531 7.84058 45.5022 7.60346 44.7985 7.60346C44.1623 7.60346 43.6121 7.82539 43.1478 8.26951C42.6834 8.71408 42.4512 9.2906 42.4512 9.99997C42.4512 10.7094 42.6834 11.2859 43.1478 11.7305C43.6121 12.1746 44.1622 12.3965 44.7985 12.3965C45.4735 12.3965 46.0362 12.1734 46.4867 11.7266C46.7792 11.4355 46.9483 11.0309 46.9936 10.5113H44.7985V9.79058H47.7275C47.7558 9.9473 47.7696 10.0977 47.7696 10.2434" fill="white"/>
<path d="M47.7697 10.2434H47.669C47.6682 11.0621 47.4273 11.698 46.9479 12.1754L46.9469 12.1762L46.9464 12.177C46.3959 12.7484 45.6882 13.0328 44.7985 13.034C43.9494 13.0328 43.2387 12.7453 42.6452 12.1625C42.053 11.5785 41.7602 10.8656 41.7591 9.99998C41.7602 9.13399 42.053 8.42147 42.6452 7.83789C43.2387 7.25467 43.9494 6.96677 44.7985 6.96556C45.2184 6.96556 45.6183 7.0469 45.9996 7.20897C46.3813 7.37229 46.6828 7.5863 46.9074 7.852L46.9846 7.78747L46.9134 7.71677L46.3821 8.24484L46.4533 8.31518L46.5309 8.25118C46.1121 7.75308 45.5243 7.50199 44.7986 7.50347C44.1387 7.50267 43.5582 7.73673 43.0781 8.1977C42.5933 8.66016 42.3497 9.26913 42.3506 9.99998C42.3497 10.7309 42.5933 11.3398 43.0781 11.8023C43.5582 12.2633 44.1387 12.4973 44.7985 12.4965C45.4958 12.4977 46.0901 12.2629 46.558 11.7973C46.8704 11.4863 47.0476 11.0555 47.094 10.5199L47.1034 10.4113H44.8993V9.89059H47.7276V9.79059L47.6283 9.80817C47.6559 9.9598 47.6689 10.1039 47.6689 10.2434H47.8704C47.8704 10.0914 47.8562 9.93517 47.8267 9.77271L47.8118 9.6906H44.6978V10.6113H46.9936V10.5113L46.8933 10.5027C46.8489 11.0059 46.6875 11.3848 46.4155 11.6559C45.9827 12.084 45.4514 12.2953 44.7986 12.2965C44.1859 12.2957 43.6661 12.0863 43.2178 11.6586C42.774 11.2324 42.5532 10.6883 42.552 9.99998C42.5532 9.31169 42.774 8.76757 43.2178 8.34138C43.6661 7.91366 44.1859 7.70428 44.7986 7.70347C45.4798 7.70509 45.9942 7.92849 46.3763 8.37967L46.4471 8.46326L47.0559 7.8582L47.1212 7.7934L47.0617 7.72338C46.8142 7.43049 46.4844 7.198 46.0791 7.02542C45.673 6.8523 45.2445 6.76557 44.7986 6.76557C43.903 6.7648 43.1301 7.07729 42.5032 7.69569C41.874 8.31289 41.5568 9.08868 41.5577 9.99998C41.5568 10.9109 41.874 11.6871 42.5036 12.3047C43.1301 12.9227 43.903 13.2348 44.7986 13.234C45.7312 13.2348 46.5049 12.9273 47.0921 12.3152L47.0192 12.2461L47.0904 12.3168C47.6123 11.7992 47.8711 11.1 47.8705 10.2434H47.7697H47.7697ZM52.4132 7.73709H49.6605V9.6395H52.1429V10.3605H49.6605V12.2629H52.4132V13H48.8845V6.99999H52.4132V7.73709" fill="white"/>
<path d="M52.4131 7.73709V7.63709H49.5597V9.7395H52.0421V10.2602L49.5597 10.2605V12.3629H52.3123V12.9H48.9852V7.09999H52.3123V7.73709H52.4131V7.63709V7.73709H52.5138V6.89999H48.7837V13.1H52.5138V12.1629H49.7612V10.4605H52.2436V9.53951H49.7612V7.83709H52.5138V7.73709H52.4131V7.73709ZM55.6884 13H54.9112V7.73705H53.2229V6.99995H57.3766V7.73705H55.6884V12.9999" fill="white"/>
<path d="M55.6884 13V12.9H55.0119V7.63709H53.3237V7.10003H57.2759V7.63709H55.5877V13H55.6884V12.9V13H55.7892V7.83709H57.4773V6.89999H53.1223V7.83704H54.8104V13.0999H55.7892V12.9999H55.6884V13ZM60.3819 13V6.99995H61.1583V12.9999H60.3819" fill="white"/>
<path d="M60.3818 13H60.4826V7.09999H61.0575V12.9H60.3818V13H60.4826H60.3818V13.1H61.259V6.89999H60.2811V13.1H60.3818V13V13ZM64.6035 13H63.8263V7.73705H62.1381V6.99995H66.2917V7.73705H64.6035V12.9999" fill="white"/>
<path d="M64.6035 13V12.9H63.9271V7.63708H62.239V7.10002H66.191V7.63708H64.5028V13H64.6035V12.9V13H64.7043V7.83707H66.3925V6.89998H62.0375V7.83703H63.7256V13.0999H64.7043V12.9999H64.6035V13ZM70.2962 11.7223C70.7436 12.1719 71.291 12.3964 71.9384 12.3964C72.5857 12.3964 73.1334 12.1719 73.5801 11.7223C74.0279 11.2727 74.2523 10.698 74.2523 9.99997C74.2523 9.30202 74.0279 8.72729 73.5801 8.27769C73.1334 7.82809 72.5857 7.60346 71.9384 7.60346C71.291 7.60346 70.7436 7.82809 70.2962 8.27769C69.8495 8.72729 69.6253 9.30197 69.6253 9.99997C69.6253 10.698 69.8495 11.2727 70.2962 11.7223ZM74.1547 12.2246C73.5604 12.8312 72.8214 13.134 71.9384 13.134C71.0545 13.134 70.3158 12.8312 69.7229 12.2246C69.1282 11.6187 68.8323 10.877 68.8323 9.99997C68.8323 9.12297 69.1282 8.38115 69.7229 7.77537C70.3159 7.16865 71.0545 6.86555 71.9384 6.86555C72.8167 6.86555 73.5537 7.17026 74.1508 7.77928C74.7469 8.38825 75.0452 9.12845 75.0452 9.99997C75.0452 10.877 74.7476 11.6187 74.1547 12.2246Z" fill="white"/>
<path d="M70.2963 11.7223L70.2246 11.7926C70.6886 12.2602 71.2675 12.4977 71.9384 12.4965C72.609 12.4977 73.1886 12.2602 73.6518 11.7926C74.1189 11.3246 74.3538 10.7191 74.3531 10C74.3537 9.28093 74.1189 8.67543 73.6518 8.20739C73.1886 7.73981 72.609 7.50234 71.9384 7.50351C71.2675 7.50234 70.6886 7.73981 70.2246 8.20739C69.7587 8.67543 69.5234 9.28093 69.5246 10C69.5234 10.7191 69.7587 11.3246 70.2246 11.7926L70.2963 11.7223L70.3679 11.652C69.9406 11.2203 69.7269 10.6773 69.7261 10C69.7269 9.32273 69.9406 8.77974 70.3679 8.34802C70.7991 7.91644 71.3143 7.70471 71.9384 7.70355C72.5621 7.70471 73.0784 7.91644 73.5086 8.34802C73.9367 8.77974 74.1504 9.32273 74.1512 10C74.1504 10.6773 73.9367 11.2203 73.5086 11.652C73.0784 12.0836 72.5622 12.2953 71.9384 12.2965C71.3143 12.2953 70.7991 12.0836 70.3679 11.652L70.2963 11.7223ZM74.1547 12.2246L74.0827 12.1551C73.505 12.7426 72.7986 13.0329 71.9384 13.034C71.0778 13.0328 70.3714 12.7426 69.7949 12.1551L69.7921 12.152L69.7949 12.1551C69.2184 11.5656 68.934 10.8547 68.9331 10C68.934 9.1453 69.2184 8.4344 69.7949 7.84493C70.3714 7.2574 71.0778 6.9668 71.9384 6.96564C72.7931 6.9668 73.4979 7.25862 74.0787 7.8492C74.6572 8.44141 74.9433 9.15119 74.9445 10C74.9433 10.8547 74.658 11.5656 74.0827 12.1551L74.1547 12.2246L74.2272 12.2941C74.8378 11.6715 75.1467 10.8992 75.146 10C75.1468 9.10593 74.8367 8.33521 74.2231 7.70984C73.6093 7.08199 72.8404 6.76452 71.9384 6.7656C71.0318 6.76452 70.2605 7.08051 69.6505 7.70593V7.70548C69.0386 8.32851 68.7308 9.10081 68.7317 10C68.7308 10.8992 69.0386 11.6715 69.6505 12.2945L69.6532 12.2973L69.6505 12.2941C70.2605 12.9195 71.0318 13.2348 71.9384 13.234C72.8447 13.2348 73.616 12.9195 74.2272 12.2941L74.1547 12.2246V12.2246ZM76.1353 13.0001V6.99997H77.0805L80.0181 11.6676H80.0516L80.0181 10.5113V6.99997H80.7954V13H79.9847L76.9113 8.10618H76.8778L76.9113 9.26287V13H76.1353" fill="white"/>
<path d="M76.1352 13H76.236V7.09999H77.0246L79.9622 11.7676H80.155L80.1188 10.5098V7.10003H80.6945V12.9H80.0405L76.9672 8.00621H76.7743L76.8105 9.2645V12.9H76.1352V13H76.236H76.1352V13.1H77.012V9.26131L76.9785 8.10351L76.8778 8.1062V8.2062H76.9112V8.1062L76.8258 8.15937L79.9287 13.1H80.896V6.89999H79.9173V10.5125L79.9508 11.6703L80.0515 11.6676V11.5676H80.0181V11.6676L80.1035 11.6145L77.1363 6.89999H76.0345V13.1H76.1353V13L76.1352 13ZM107.728 30H109.608V17.4988H107.728L107.728 30ZM124.66 22.002L122.505 27.4219H122.44L120.204 22.002H118.179L121.533 29.5773L119.621 33.791H121.582L126.75 22.002L124.66 22.002ZM113.999 28.5801C113.383 28.5801 112.524 28.2746 112.524 27.5184C112.524 26.5535 113.594 26.1836 114.517 26.1836C115.344 26.1836 115.732 26.3605 116.235 26.602C116.089 27.7598 115.084 28.5801 113.999 28.5801V28.5801ZM114.226 21.7285C112.865 21.7285 111.456 22.3238 110.872 23.6426L112.54 24.334C112.897 23.6426 113.561 23.4172 114.258 23.4172C115.23 23.4172 116.219 23.9965 116.235 25.0258V25.1543C115.894 24.9613 115.166 24.6719 114.274 24.6719C112.476 24.6719 110.645 25.6527 110.645 27.4863C110.645 29.159 112.119 30.2367 113.772 30.2367C115.036 30.2367 115.732 29.6738 116.17 29.0145H116.235V29.9793H118.049V25.1863C118.049 22.9672 116.381 21.7285 114.226 21.7285V21.7285ZM102.608 23.5238H99.9348V19.2387H102.608C104.014 19.2387 104.812 20.3937 104.812 21.3812C104.812 22.35 104.014 23.5238 102.608 23.5238ZM102.56 17.4988H98.056V30H99.9348V25.2637H102.56C104.643 25.2637 106.691 23.7664 106.691 21.3812C106.691 18.9961 104.643 17.4988 102.56 17.4988V17.4988ZM77.9985 28.5824C76.6999 28.5824 75.6126 27.5031 75.6126 26.0207C75.6126 24.5227 76.6999 23.427 77.9985 23.427C79.2807 23.427 80.2868 24.5227 80.2868 26.0207C80.2868 27.5031 79.2807 28.5824 77.9986 28.5824H77.9985ZM80.157 22.702H80.092C79.6702 22.2027 78.8583 21.7516 77.836 21.7516C75.6937 21.7516 73.73 23.6203 73.73 26.0207C73.73 28.4051 75.6936 30.2578 77.836 30.2578C78.8583 30.2578 79.6702 29.8066 80.092 29.2914H80.157V29.9035C80.157 31.5309 79.2807 32.4008 77.8687 32.4008C76.7164 32.4008 76.0022 31.5789 75.7098 30.8863L74.0709 31.5629C74.5415 32.6906 75.7913 34.0762 77.8687 34.0762C80.0759 34.0762 81.9423 32.7871 81.9423 29.6457V22.0094H80.157V22.702ZM83.2406 30H85.1232V17.4984H83.2406V30ZM87.8986 25.8758C87.8499 24.2324 89.1807 23.3949 90.1382 23.3949C90.8853 23.3949 91.5179 23.7652 91.7285 24.2973L87.8986 25.8758ZM93.7413 24.4582C93.3846 23.5074 92.2966 21.7516 90.0732 21.7516C87.866 21.7516 86.0322 23.4754 86.0322 26.0047C86.0322 28.3891 87.8498 30.2578 90.2842 30.2578C92.2483 30.2578 93.3846 29.0656 93.8551 28.373L92.3944 27.4062C91.9078 28.1152 91.2419 28.5824 90.2842 28.5824C89.3267 28.5824 88.6452 28.1473 88.2067 27.2937L93.9357 24.9414L93.7413 24.4582ZM48.0975 23.0566V24.8609H52.4469C52.3171 25.8758 51.9763 26.6168 51.4568 27.1324C50.8241 27.7609 49.834 28.4535 48.0974 28.4535C45.4194 28.4535 43.326 26.3109 43.326 23.6527C43.326 20.9945 45.4195 18.8516 48.0975 18.8516C49.542 18.8516 50.5966 19.4156 51.3758 20.1406L52.6579 18.868C51.5706 17.8367 50.126 17.0473 48.0975 17.0473C44.4294 17.0473 41.3458 20.0117 41.3458 23.6527C41.3458 27.2937 44.4294 30.2578 48.0975 30.2578C50.0776 30.2578 51.5706 29.6137 52.739 28.4051C53.94 27.2129 54.3135 25.5375 54.3135 24.1844C54.3135 23.7652 54.2811 23.3789 54.2158 23.0566H48.0975ZM59.2584 28.5824C57.9598 28.5824 56.8398 27.5191 56.8398 26.0047C56.8398 24.4742 57.9598 23.427 59.2584 23.427C60.5566 23.427 61.6765 24.4742 61.6765 26.0047C61.6765 27.5191 60.5566 28.5824 59.2584 28.5824ZM59.2584 21.7516C56.8886 21.7516 54.9572 23.5398 54.9572 26.0047C54.9572 28.4535 56.8886 30.2578 59.2584 30.2578C61.6277 30.2578 63.5591 28.4535 63.5591 26.0047C63.5591 23.5398 61.6277 21.7516 59.2584 21.7516ZM68.6406 28.5824C67.3425 28.5824 66.2224 27.5191 66.2224 26.0047C66.2224 24.4742 67.3425 23.427 68.6406 23.427C69.9389 23.427 71.0588 24.4742 71.0588 26.0047C71.0588 27.5191 69.9389 28.5824 68.6406 28.5824H68.6406ZM68.6406 21.7516C66.2709 21.7516 64.3399 23.5398 64.3399 26.0047C64.3399 28.4535 66.2709 30.2578 68.6406 30.2578C71.01 30.2578 72.9415 28.4535 72.9415 26.0047C72.9415 23.5398 71.01 21.7516 68.6406 21.7516H68.6406Z" fill="white"/>
<path d="M10.5865 7.61132C10.2484 7.91409 10.0466 8.41911 10.0466 9.08947V8.93793V31.059V30.9133C10.0466 31.5324 10.2197 32.0105 10.5129 32.3184L10.5877 32.3895V32.3898C10.8249 32.6024 11.1292 32.7152 11.4779 32.7148C11.8186 32.7148 12.2019 32.607 12.6065 32.3793L27.2292 24.1321L32.252 21.2988C32.8899 20.9391 33.248 20.475 33.3079 20.0023V20.0004C33.248 19.5266 32.8899 19.0629 32.252 18.7031L27.2288 15.8703L12.6065 7.623C12.2011 7.39492 11.8175 7.2867 11.4759 7.2867C11.1276 7.2867 10.8238 7.39919 10.5866 7.61132H10.5865Z" fill="#34C998"/>
<path d="M10.5877 32.3895L10.5129 32.3184C10.2197 32.0105 10.0466 31.5324 10.0466 30.9133V31.059V8.9434V9.08946C10.0466 8.4191 10.2484 7.91409 10.5865 7.61131L23.0681 20.0008L10.5877 32.3895Z" fill="url(#paint0_linear_1_644)"/>
<path d="M27.2291 24.132L23.068 20.0008L27.2287 15.8703L32.2519 18.7031C32.8898 19.0629 33.2479 19.5265 33.3078 20.0004V20.0023C33.2479 20.475 32.8898 20.9391 32.2519 21.2988L27.2291 24.1319" fill="url(#paint1_linear_1_644)"/>
<path d="M11.4777 32.7148C11.1291 32.7151 10.8248 32.6022 10.5876 32.3898V32.3894L23.068 20.0007L27.2291 24.1319L12.6063 32.3793C12.2018 32.607 11.8184 32.7148 11.4777 32.7148Z" fill="url(#paint2_linear_1_644)"/>
<path d="M23.0681 20.0008L10.5864 7.61133C10.8237 7.3992 11.1275 7.28671 11.4758 7.28671C11.8174 7.28671 12.201 7.39489 12.6064 7.62302L27.2288 15.8703L23.068 20.0008" fill="url(#paint3_linear_1_644)"/>
<path d="M11.4783 32.8613C11.1297 32.8613 10.825 32.7484 10.5878 32.5359L10.5874 32.5363C10.5864 32.5353 10.5854 32.5344 10.5842 32.5336L10.5193 32.4706C10.5173 32.4687 10.5154 32.4664 10.513 32.4641L10.5878 32.3898C10.8251 32.6023 11.1293 32.7152 11.478 32.7148C11.8187 32.7148 12.202 32.607 12.6066 32.3793L27.2293 24.132L27.323 24.225L27.2281 24.2785L12.6065 32.5253C12.2378 32.7328 11.8872 32.841 11.5704 32.859C11.5397 32.8605 11.509 32.8612 11.4783 32.8612" fill="url(#paint4_linear_1_644)"/>
<path d="M10.5129 32.4641C10.2197 32.1563 10.0466 31.6785 10.0466 31.059V30.9133C10.0466 31.5324 10.2197 32.0105 10.5129 32.3184L10.5877 32.3895L10.5129 32.4641" fill="url(#paint5_linear_1_644)"/>
<path d="M27.3228 24.225L27.2291 24.1319L32.2519 21.2988C32.8898 20.9391 33.2479 20.475 33.3078 20.0023C33.3078 20.1758 33.2688 20.3492 33.1913 20.518C33.0351 20.8582 32.7219 21.1797 32.2519 21.4449L27.3228 24.225" fill="url(#paint6_linear_1_644)"/>
<path d="M33.3078 20.0005C33.2479 19.5266 32.8898 19.063 32.2519 18.7031L27.2286 15.8703L27.3223 15.7773H27.3227L32.2519 18.5574C32.9552 18.9543 33.3073 19.4773 33.3078 20.0005" fill="url(#paint7_linear_1_644)"/>
<path d="M10.0466 9.08948V8.93667C10.0466 8.88157 10.0481 8.82769 10.051 8.77538V8.77299C10.051 8.77227 10.051 8.77151 10.0513 8.7707V8.76481C10.0816 8.23157 10.2484 7.81563 10.5129 7.53789L10.5865 7.61128C10.2484 7.9141 10.0466 8.41912 10.0466 9.08948Z" fill="url(#paint8_linear_1_644)"/>
<path d="M27.2288 15.8703L12.6065 7.62295C12.2011 7.39487 11.8175 7.28669 11.4759 7.28669C11.1276 7.28669 10.8238 7.39918 10.5866 7.61131L10.5129 7.53787C10.5359 7.5137 10.5598 7.49039 10.5846 7.46799C10.5853 7.46718 10.5866 7.46637 10.5873 7.46561C10.8227 7.2551 11.1233 7.14261 11.4684 7.14058H11.4759C11.8175 7.14058 12.2011 7.2488 12.6065 7.47698L27.3229 15.777L27.3225 15.7773L27.2288 15.8703" fill="url(#paint9_linear_1_644)"/>
<defs>
<linearGradient id="paint0_linear_1_644" x1="18.0231" y1="8.70966" x2="7.3637" y2="19.4827" gradientUnits="userSpaceOnUse">
<stop stop-color="#00A0FF"/>
<stop offset="0.00657" stop-color="#00A1FF"/>
<stop offset="0.2601" stop-color="#00BEFF"/>
<stop offset="0.5122" stop-color="#00D2FF"/>
<stop offset="0.7604" stop-color="#00DFFF"/>
<stop offset="1" stop-color="#00E3FF"/>
</linearGradient>
<linearGradient id="paint1_linear_1_644" x1="34.085" y1="19.9294" x2="9.70876" y2="19.9294" gradientUnits="userSpaceOnUse">
<stop stop-color="#FFE000"/>
<stop offset="0.4087" stop-color="#FFBD00"/>
<stop offset="0.7754" stop-color="#FFA500"/>
<stop offset="1" stop-color="#FF9C00"/>
</linearGradient>
<linearGradient id="paint2_linear_1_644" x1="25.0199" y1="23.9285" x2="6.95551" y2="42.0522" gradientUnits="userSpaceOnUse">
<stop stop-color="#FF3A44"/>
<stop offset="1" stop-color="#C31162"/>
</linearGradient>
<linearGradient id="paint3_linear_1_644" x1="7.36956" y1="5.77453" x2="15.4203" y2="13.8641" gradientUnits="userSpaceOnUse">
<stop stop-color="#32A071"/>
<stop offset="0.0685" stop-color="#2DA771"/>
<stop offset="0.4762" stop-color="#15CF74"/>
<stop offset="0.8009" stop-color="#06E775"/>
<stop offset="1" stop-color="#00F076"/>
</linearGradient>
<linearGradient id="paint4_linear_1_644" x1="25.011" y1="26.7942" x2="10.5452" y2="41.4144" gradientUnits="userSpaceOnUse">
<stop stop-color="#CC2E36"/>
<stop offset="1" stop-color="#9C0E4E"/>
</linearGradient>
<linearGradient id="paint5_linear_1_644" x1="11.7094" y1="8.70963" x2="2.31858" y2="18.2008" gradientUnits="userSpaceOnUse">
<stop stop-color="#008DE0"/>
<stop offset="0.00657" stop-color="#008DE0"/>
<stop offset="0.2601" stop-color="#00A7E0"/>
<stop offset="0.5122" stop-color="#00B8E0"/>
<stop offset="0.7604" stop-color="#00C4E0"/>
<stop offset="1" stop-color="#00C7E0"/>
</linearGradient>
<linearGradient id="paint6_linear_1_644" x1="34.085" y1="20.0014" x2="9.70873" y2="20.0014" gradientUnits="userSpaceOnUse">
<stop stop-color="#E0C500"/>
<stop offset="0.4087" stop-color="#E0A600"/>
<stop offset="0.7754" stop-color="#E09100"/>
<stop offset="1" stop-color="#E08900"/>
</linearGradient>
<linearGradient id="paint7_linear_1_644" x1="34.085" y1="20.0014" x2="9.70873" y2="20.0014" gradientUnits="userSpaceOnUse">
<stop stop-color="#FFE840"/>
<stop offset="0.4087" stop-color="#FFCE40"/>
<stop offset="0.7754" stop-color="#FFBC40"/>
<stop offset="1" stop-color="#FFB540"/>
</linearGradient>
<linearGradient id="paint8_linear_1_644" x1="11.6991" y1="8.72666" x2="2.65048" y2="17.4756" gradientUnits="userSpaceOnUse">
<stop stop-color="#40B8FF"/>
<stop offset="0.00657" stop-color="#40B9FF"/>
<stop offset="0.2601" stop-color="#40CEFF"/>
<stop offset="0.5122" stop-color="#40DDFF"/>
<stop offset="0.7604" stop-color="#40E7FF"/>
<stop offset="1" stop-color="#40EAFF"/>
</linearGradient>
<linearGradient id="paint9_linear_1_644" x1="7.35146" y1="8.39465" x2="13.8111" y2="14.9233" gradientUnits="userSpaceOnUse">
<stop stop-color="#65B895"/>
<stop offset="0.0685" stop-color="#62BD95"/>
<stop offset="0.4762" stop-color="#50DB97"/>
<stop offset="0.8009" stop-color="#44ED98"/>
<stop offset="1" stop-color="#40F498"/>
</linearGradient>
</defs>
</svg>
