<svg width="48" height="48" viewBox="0 0 48 48" fill="none" xmlns="http://www.w3.org/2000/svg">
<path d="M45.75 8.99998H40.4805C40.0199 8.36628 39.3672 7.89805 38.6194 7.66485C37.8715 7.43164 37.0684 7.44589 36.3292 7.70548C34.9013 5.78043 33.0424 4.2165 30.9014 3.13894C28.7604 2.06138 26.3969 1.50012 24 1.50012C21.6031 1.50012 19.2396 2.06138 17.0986 3.13894C14.9576 4.2165 13.0987 5.78043 11.6707 7.70548C10.9316 7.44589 10.1285 7.43164 9.38062 7.66485C8.63275 7.89805 7.98006 8.36628 7.5195 8.99998H2.25C2.05109 8.99998 1.86032 9.079 1.71967 9.21965C1.57902 9.3603 1.5 9.55107 1.5 9.74998V38.25C1.5 38.4489 1.57902 38.6397 1.71967 38.7803C1.86032 38.921 2.05109 39 2.25 39H21.75V42H17.25C17.0511 42 16.8604 42.0791 16.7197 42.2197L13.7197 45.2197C13.6149 45.3246 13.5435 45.4582 13.5146 45.6037C13.4856 45.7492 13.5005 45.9 13.5572 46.037C13.614 46.174 13.7101 46.2911 13.8334 46.3735C13.9567 46.456 14.1017 46.5 14.25 46.5H33.75C33.8983 46.5 34.0433 46.456 34.1666 46.3735C34.2899 46.2911 34.386 46.174 34.4428 46.037C34.4995 45.9 34.5144 45.7492 34.4854 45.6037C34.4565 45.4582 34.3851 45.3246 34.2803 45.2197L31.2803 42.2197C31.1396 42.0791 30.9489 42 30.75 42H26.25V39H45.75C45.9489 39 46.1397 38.921 46.2803 38.7803C46.421 38.6397 46.5 38.4489 46.5 38.25V9.74998C46.5 9.55107 46.421 9.3603 46.2803 9.21965C46.1397 9.079 45.9489 8.99998 45.75 8.99998ZM39.75 11.25C39.75 11.695 39.618 12.13 39.3708 12.5C39.1236 12.87 38.7722 13.1584 38.361 13.3287C37.9499 13.499 37.4975 13.5436 37.061 13.4567C36.6246 13.3699 36.2237 13.1556 35.909 12.841C35.5943 12.5263 35.38 12.1254 35.2932 11.6889C35.2064 11.2525 35.251 10.8001 35.4213 10.3889C35.5916 9.97781 35.88 9.62641 36.25 9.37917C36.62 9.13194 37.055 8.99998 37.5 8.99998C38.0967 8.99998 38.669 9.23703 39.091 9.65899C39.5129 10.0809 39.75 10.6532 39.75 11.25V11.25ZM24 2.99998C26.1337 3.00044 28.2385 3.49313 30.1507 4.43973C32.0629 5.38633 33.7309 6.76132 35.025 8.45773C34.6301 8.80252 34.3122 9.22656 34.0919 9.70229C33.8717 10.178 33.754 10.6948 33.7466 11.219C33.7392 11.7431 33.8422 12.263 34.0489 12.7448C34.2556 13.2266 34.5614 13.6594 34.9464 14.0152C35.3313 14.3711 35.7869 14.6419 36.2834 14.8101C36.78 14.9783 37.3063 15.0401 37.8283 14.9915C38.3503 14.9429 38.8562 14.785 39.3131 14.528C39.7701 14.271 40.1678 13.9208 40.4805 13.5H42V34.5H29.085L27.9502 29.9595C28.107 29.9179 28.2457 29.8259 28.3451 29.6977C28.4444 29.5695 28.4988 29.4122 28.5 29.25V26.9835C28.8944 26.9444 29.2715 26.8018 29.5931 26.5701C29.9148 26.3385 30.1695 26.026 30.3315 25.6642L32.5815 20.5987C32.7423 20.2367 32.8047 19.8385 32.7622 19.4446C32.7198 19.0507 32.5742 18.675 32.34 18.3555L24.6052 7.80673C24.5323 7.71639 24.4402 7.64352 24.3354 7.59346C24.2307 7.5434 24.1161 7.51741 24 7.51741C23.8839 7.51741 23.7693 7.5434 23.6646 7.59346C23.5598 7.64352 23.4677 7.71639 23.3948 7.80673L15.6592 18.3555C15.4254 18.6753 15.2799 19.0511 15.2375 19.4451C15.1951 19.839 15.2573 20.2372 15.4177 20.5995L17.6677 25.6642C17.8298 26.0261 18.0847 26.3386 18.4064 26.5703C18.7282 26.802 19.1054 26.9445 19.5 26.9835V29.25C19.5012 29.4122 19.5556 29.5695 19.6549 29.6977C19.7543 29.8259 19.893 29.9179 20.0497 29.9595L18.915 34.5H6V13.5H7.5195C7.83218 13.9208 8.22992 14.271 8.68686 14.528C9.1438 14.785 9.64971 14.9429 10.1717 14.9915C10.6937 15.0401 11.22 14.9783 11.7166 14.8101C12.2131 14.6419 12.6687 14.3711 13.0536 14.0152C13.4386 13.6594 13.7444 13.2266 13.9511 12.7448C14.1578 12.263 14.2608 11.7431 14.2534 11.219C14.246 10.6948 14.1283 10.178 13.9081 9.70229C13.6878 9.22656 13.3699 8.80252 12.975 8.45773C14.2691 6.76132 15.9371 5.38633 17.8493 4.43973C19.7615 3.49313 21.8663 3.00044 24 2.99998V2.99998ZM24 18C24.2967 18 24.5867 18.088 24.8334 18.2528C25.08 18.4176 25.2723 18.6519 25.3858 18.926C25.4994 19.2 25.5291 19.5016 25.4712 19.7926C25.4133 20.0836 25.2704 20.3509 25.0607 20.5606C24.8509 20.7704 24.5836 20.9133 24.2926 20.9712C24.0017 21.029 23.7001 20.9993 23.426 20.8858C23.1519 20.7723 22.9176 20.58 22.7528 20.3333C22.588 20.0867 22.5 19.7967 22.5 19.5C22.5 19.1022 22.658 18.7206 22.9393 18.4393C23.2206 18.158 23.6022 18 24 18V18ZM23.25 16.6065C22.543 16.789 21.9269 17.2232 21.517 17.8275C21.1072 18.4318 20.9319 19.1649 21.0239 19.8892C21.1159 20.6136 21.4689 21.2795 22.0168 21.7622C22.5647 22.2449 23.2698 22.5112 24 22.5112C24.7302 22.5112 25.4353 22.2449 25.9832 21.7622C26.5311 21.2795 26.8841 20.6136 26.9761 19.8892C27.0681 19.1649 26.8928 18.4318 26.483 17.8275C26.0731 17.2232 25.457 16.789 24.75 16.6065V10.5412L31.131 19.2412C31.2094 19.348 31.2582 19.4737 31.2723 19.6054C31.2864 19.7371 31.2653 19.8703 31.2113 19.9912L28.9613 25.056C28.9021 25.1884 28.8057 25.3009 28.6839 25.3797C28.5621 25.4585 28.4201 25.5003 28.275 25.5H19.725C19.5799 25.5 19.4379 25.4579 19.3162 25.3788C19.1945 25.2998 19.0984 25.1871 19.0395 25.0545L16.7895 19.9905C16.7354 19.8695 16.7144 19.7364 16.7285 19.6047C16.7426 19.4729 16.7913 19.3473 16.8698 19.2405L23.25 10.5412V16.6065ZM27 27V28.5H21V27H27ZM21.5858 30H26.4143L27.5393 34.5H20.4608L21.5858 30ZM10.5 8.99998C10.945 8.99998 11.38 9.13194 11.75 9.37917C12.12 9.62641 12.4084 9.97781 12.5787 10.3889C12.749 10.8001 12.7936 11.2525 12.7068 11.6889C12.62 12.1254 12.4057 12.5263 12.091 12.841C11.7763 13.1556 11.3754 13.3699 10.939 13.4567C10.5025 13.5436 10.0501 13.499 9.63896 13.3287C9.22783 13.1584 8.87643 12.87 8.62919 12.5C8.38196 12.13 8.25 11.695 8.25 11.25C8.25 10.6532 8.48705 10.0809 8.90901 9.65899C9.33097 9.23703 9.90326 8.99998 10.5 8.99998V8.99998ZM31.9395 45H16.0605L17.5605 43.5H30.4395L31.9395 45ZM24.75 42H23.25V39H24.75V42ZM45 37.5H3V10.5H6.825C6.72398 10.9949 6.72398 11.5051 6.825 12H5.25C5.05109 12 4.86032 12.079 4.71967 12.2196C4.57902 12.3603 4.5 12.5511 4.5 12.75V35.25C4.5 35.4489 4.57902 35.6397 4.71967 35.7803C4.86032 35.921 5.05109 36 5.25 36H42.75C42.9489 36 43.1397 35.921 43.2803 35.7803C43.421 35.6397 43.5 35.4489 43.5 35.25V12.75C43.5 12.5511 43.421 12.3603 43.2803 12.2196C43.1397 12.079 42.9489 12 42.75 12H41.175C41.276 11.5051 41.276 10.9949 41.175 10.5H45V37.5Z" fill="#80A948"/>
<path d="M11.25 28.5H8.25C8.05109 28.5 7.86032 28.579 7.71967 28.7197C7.57902 28.8603 7.5 29.0511 7.5 29.25V32.25C7.5 32.4489 7.57902 32.6397 7.71967 32.7803C7.86032 32.921 8.05109 33 8.25 33H11.25C11.4489 33 11.6397 32.921 11.7803 32.7803C11.921 32.6397 12 32.4489 12 32.25V29.25C12 29.0511 11.921 28.8603 11.7803 28.7197C11.6397 28.579 11.4489 28.5 11.25 28.5ZM10.5 31.5H9V30H10.5V31.5Z" fill="#80A948"/>
<path d="M11.25 22.5H8.25C8.05109 22.5 7.86032 22.579 7.71967 22.7197C7.57902 22.8603 7.5 23.0511 7.5 23.25V26.25C7.5 26.4489 7.57902 26.6397 7.71967 26.7803C7.86032 26.921 8.05109 27 8.25 27H11.25C11.4489 27 11.6397 26.921 11.7803 26.7803C11.921 26.6397 12 26.4489 12 26.25V23.25C12 23.0511 11.921 22.8603 11.7803 22.7197C11.6397 22.579 11.4489 22.5 11.25 22.5ZM10.5 25.5H9V24H10.5V25.5Z" fill="#80A948"/>
<path d="M11.25 16.5H8.25C8.05109 16.5 7.86032 16.579 7.71967 16.7197C7.57902 16.8603 7.5 17.0511 7.5 17.25V20.25C7.5 20.4489 7.57902 20.6397 7.71967 20.7803C7.86032 20.921 8.05109 21 8.25 21H11.25C11.4489 21 11.6397 20.921 11.7803 20.7803C11.921 20.6397 12 20.4489 12 20.25V17.25C12 17.0511 11.921 16.8603 11.7803 16.7197C11.6397 16.579 11.4489 16.5 11.25 16.5ZM10.5 19.5H9V18H10.5V19.5Z" fill="#80A948"/>
<path d="M36.75 33H39.75C39.9489 33 40.1397 32.921 40.2803 32.7803C40.421 32.6397 40.5 32.4489 40.5 32.25V29.25C40.5 29.0511 40.421 28.8603 40.2803 28.7197C40.1397 28.579 39.9489 28.5 39.75 28.5H36.75C36.5511 28.5 36.3603 28.579 36.2197 28.7197C36.079 28.8603 36 29.0511 36 29.25V32.25C36 32.4489 36.079 32.6397 36.2197 32.7803C36.3603 32.921 36.5511 33 36.75 33ZM37.5 30H39V31.5H37.5V30Z" fill="#80A948"/>
<path d="M36.75 27H39.75C39.9489 27 40.1397 26.921 40.2803 26.7803C40.421 26.6397 40.5 26.4489 40.5 26.25V23.25C40.5 23.0511 40.421 22.8603 40.2803 22.7197C40.1397 22.579 39.9489 22.5 39.75 22.5H36.75C36.5511 22.5 36.3603 22.579 36.2197 22.7197C36.079 22.8603 36 23.0511 36 23.25V26.25C36 26.4489 36.079 26.6397 36.2197 26.7803C36.3603 26.921 36.5511 27 36.75 27ZM37.5 24H39V25.5H37.5V24Z" fill="#80A948"/>
<path d="M36.75 21H39.75C39.9489 21 40.1397 20.921 40.2803 20.7803C40.421 20.6397 40.5 20.4489 40.5 20.25V17.25C40.5 17.0511 40.421 16.8603 40.2803 16.7197C40.1397 16.579 39.9489 16.5 39.75 16.5H36.75C36.5511 16.5 36.3603 16.579 36.2197 16.7197C36.079 16.8603 36 17.0511 36 17.25V20.25C36 20.4489 36.079 20.6397 36.2197 20.7803C36.3603 20.921 36.5511 21 36.75 21ZM37.5 18H39V19.5H37.5V18Z" fill="#80A948"/>
</svg>
