<svg width="48" height="48" viewBox="0 0 48 48" fill="none" xmlns="http://www.w3.org/2000/svg">
<path d="M24 14.25C24.5933 14.25 25.1734 14.0741 25.6667 13.7444C26.1601 13.4148 26.5446 12.9462 26.7716 12.3981C26.9987 11.8499 27.0581 11.2467 26.9424 10.6647C26.8266 10.0828 26.5409 9.54824 26.1213 9.12868C25.7018 8.70912 25.1672 8.4234 24.5853 8.30765C24.0033 8.19189 23.4001 8.2513 22.852 8.47836C22.3038 8.70543 21.8352 9.08994 21.5056 9.58329C21.1759 10.0766 21 10.6567 21 11.25C21 12.0457 21.3161 12.8087 21.8787 13.3713C22.4413 13.9339 23.2044 14.25 24 14.25ZM24 9.75C24.2967 9.75 24.5867 9.83798 24.8334 10.0028C25.08 10.1676 25.2723 10.4019 25.3858 10.676C25.4994 10.9501 25.5291 11.2517 25.4712 11.5426C25.4133 11.8336 25.2704 12.1009 25.0607 12.3107C24.8509 12.5204 24.5836 12.6633 24.2926 12.7212C24.0017 12.7791 23.7001 12.7494 23.426 12.6358C23.1519 12.5223 22.9176 12.33 22.7528 12.0834C22.588 11.8367 22.5 11.5467 22.5 11.25C22.5 10.8522 22.658 10.4706 22.9393 10.1893C23.2206 9.90804 23.6022 9.75 24 9.75V9.75Z" fill="#80A948"/>
<path d="M23.25 21.75H24.75V23.25H23.25V21.75Z" fill="#80A948"/>
<path d="M23.25 24.75H24.75V30H23.25V24.75Z" fill="#80A948"/>
<path d="M43.2375 42.2774C43.1677 42.1914 43.0797 42.1219 42.9799 42.0739C42.88 42.0259 42.7708 42.0007 42.66 41.9999H42V21.7499C42 21.551 41.921 21.3602 41.7803 21.2196C41.6397 21.0789 41.4489 20.9999 41.25 20.9999H36.51L35.9925 17.1524C35.9775 17.0313 35.9327 16.9158 35.862 16.8163C35.7913 16.7168 35.697 16.6364 35.5875 16.5824L31.47 14.5199C31.1925 7.44743 24.765 1.91243 24.4875 1.67993C24.3517 1.56373 24.1788 1.49988 24 1.49988C23.8212 1.49988 23.6484 1.56373 23.5125 1.67993C23.235 1.91243 16.8075 7.44743 16.53 14.5199L12.4125 16.5824C12.3031 16.6364 12.2087 16.7168 12.1381 16.8163C12.0674 16.9158 12.0225 17.0313 12.0075 17.1524L11.49 20.9999H6.75001C6.5511 20.9999 6.36034 21.0789 6.21968 21.2196C6.07903 21.3602 6.00001 21.551 6.00001 21.7499V41.9999H5.34001C5.22923 42.0007 5.11999 42.0259 5.02014 42.0739C4.92029 42.1219 4.8323 42.1914 4.76251 42.2774C4.6915 42.3643 4.64111 42.4661 4.61513 42.5752C4.58914 42.6843 4.58825 42.7979 4.61251 42.9074L5.26501 45.9074C5.3011 46.0754 5.3938 46.226 5.52759 46.3338C5.66139 46.4417 5.82816 46.5003 6.00001 46.4999H42C42.1719 46.5003 42.3386 46.4417 42.4724 46.3338C42.6062 46.226 42.6989 46.0754 42.735 45.9074L43.3875 42.9074C43.4118 42.7979 43.4109 42.6843 43.3849 42.5752C43.3589 42.4661 43.3085 42.3643 43.2375 42.2774V42.2774ZM31.4625 16.1924L34.56 17.7449L35.895 27.7499H34.245L32.19 22.9574C32.1326 22.8219 32.0366 22.7062 31.9139 22.6248C31.7912 22.5435 31.6472 22.5 31.5 22.4999H30.2475C30.9645 20.4697 31.374 18.3437 31.4625 16.1924V16.1924ZM24 3.26993C25.5075 4.70243 30 9.46493 30 14.9999C30.057 17.9287 29.4385 20.8313 28.1925 23.4824C27.54 20.6849 25.935 18.7499 24 18.7499C22.065 18.7499 20.46 20.6849 19.8075 23.4824C18.5615 20.8313 17.9431 17.9287 18 14.9999C18 9.47243 22.4925 4.70993 24 3.26993V3.26993ZM24 31.9874C23.0475 31.0799 21 28.8149 21 26.2499C21 22.7174 22.5825 20.2499 24 20.2499C25.4175 20.2499 27 22.7174 27 26.2499C27 28.8149 24.9525 31.0799 24 31.9874ZM31.5 31.4999V38.9999H16.5V31.4999H21.5475C22.1341 32.2611 22.7976 32.9598 23.5275 33.5849C23.6618 33.6918 23.8284 33.7499 24 33.7499C24.1716 33.7499 24.3382 33.6918 24.4725 33.5849C25.2024 32.9598 25.8659 32.2611 26.4525 31.4999H31.5ZM13.44 17.7449L16.5375 16.1924C16.626 18.3437 17.0356 20.4697 17.7525 22.4999H16.5C16.3528 22.5 16.2089 22.5435 16.0862 22.6248C15.9635 22.7062 15.8674 22.8219 15.81 22.9574L13.755 27.7499H12.105L13.44 17.7449ZM7.50001 22.4999H11.295L10.5075 28.4024C10.4936 28.5083 10.5025 28.6159 10.5335 28.7181C10.5646 28.8203 10.6171 28.9147 10.6875 28.9949C10.7572 29.0757 10.8436 29.1403 10.9407 29.1843C11.0378 29.2283 11.1434 29.2507 11.25 29.2499H14.25C14.3972 29.2498 14.5412 29.2064 14.6639 29.125C14.7866 29.0436 14.8826 28.928 14.94 28.7924L16.995 23.9999H18.3825C18.7018 24.6488 19.0809 25.2665 19.515 25.8449C19.5075 25.9799 19.5 26.1149 19.5 26.2499C19.5306 27.5691 19.8944 28.8591 20.5575 29.9999H15.75C15.5511 29.9999 15.3603 30.0789 15.2197 30.2196C15.079 30.3602 15 30.551 15 30.7499V39.7499C15 39.9488 15.079 40.1396 15.2197 40.2803C15.3603 40.4209 15.5511 40.4999 15.75 40.4999H32.25C32.4489 40.4999 32.6397 40.4209 32.7803 40.2803C32.921 40.1396 33 39.9488 33 39.7499V30.7499C33 30.551 32.921 30.3602 32.7803 30.2196C32.6397 30.0789 32.4489 29.9999 32.25 29.9999H27.4425C28.1056 28.8591 28.4694 27.5691 28.5 26.2499C28.5 26.1149 28.4925 25.9799 28.485 25.8449C28.9191 25.2665 29.2982 24.6488 29.6175 23.9999H31.005L33.06 28.7924C33.1174 28.928 33.2135 29.0436 33.3362 29.125C33.4589 29.2064 33.6028 29.2498 33.75 29.2499H36.75C36.8567 29.2507 36.9622 29.2283 37.0593 29.1843C37.1564 29.1403 37.2428 29.0757 37.3125 28.9949C37.383 28.9147 37.4355 28.8203 37.4665 28.7181C37.4976 28.6159 37.5064 28.5083 37.4925 28.4024L36.705 22.4999H40.5V41.9999H26.25C26.0511 41.9999 25.8603 42.0789 25.7197 42.2196C25.579 42.3602 25.5 42.551 25.5 42.7499H22.5C22.5 42.551 22.421 42.3602 22.2803 42.2196C22.1397 42.0789 21.9489 41.9999 21.75 41.9999H7.50001V22.4999ZM41.4 44.9999H6.60001L6.27751 43.4999H21C21 43.6988 21.079 43.8896 21.2197 44.0303C21.3603 44.1709 21.5511 44.2499 21.75 44.2499H26.25C26.4489 44.2499 26.6397 44.1709 26.7803 44.0303C26.921 43.8896 27 43.6988 27 43.4999H41.7225L41.4 44.9999Z" fill="#80A948"/>
<path d="M34.5 33H39V34.5H34.5V33Z" fill="#80A948"/>
<path d="M35.25 40.5H38.25C38.4489 40.5 38.6397 40.421 38.7803 40.2803C38.921 40.1397 39 39.9489 39 39.75V36.75C39 36.5511 38.921 36.3603 38.7803 36.2197C38.6397 36.079 38.4489 36 38.25 36H35.25C35.0511 36 34.8603 36.079 34.7197 36.2197C34.579 36.3603 34.5 36.5511 34.5 36.75V39.75C34.5 39.9489 34.579 40.1397 34.7197 40.2803C34.8603 40.421 35.0511 40.5 35.25 40.5ZM36 37.5H37.5V39H36V37.5Z" fill="#80A948"/>
<path d="M9 33H13.5V34.5H9V33Z" fill="#80A948"/>
<path d="M12.75 36H9.75C9.55109 36 9.36032 36.079 9.21967 36.2197C9.07902 36.3603 9 36.5511 9 36.75V39.75C9 39.9489 9.07902 40.1397 9.21967 40.2803C9.36032 40.421 9.55109 40.5 9.75 40.5H12.75C12.9489 40.5 13.1397 40.421 13.2803 40.2803C13.421 40.1397 13.5 39.9489 13.5 39.75V36.75C13.5 36.5511 13.421 36.3603 13.2803 36.2197C13.1397 36.079 12.9489 36 12.75 36ZM12 39H10.5V37.5H12V39Z" fill="#80A948"/>
<path d="M33 6H34.5V4.5H36V3H34.5V1.5H33V3H31.5V4.5H33V6Z" fill="#80A948"/>
<path d="M39 10.5H40.5V9H42V7.5H40.5V6H39V7.5H37.5V9H39V10.5Z" fill="#80A948"/>
<path d="M13.5 6H15V4.5H16.5V3H15V1.5H13.5V3H12V4.5H13.5V6Z" fill="#80A948"/>
<path d="M7.5 10.5H9V9H10.5V7.5H9V6H7.5V7.5H6V9H7.5V10.5Z" fill="#80A948"/>
</svg>
