<svg width="148" height="40" viewBox="0 0 148 40" fill="none" xmlns="http://www.w3.org/2000/svg">
<g clip-path="url(#clip0_1_612)">
<path d="M136.214 0.00013H11.7925C11.3389 0.00013 10.8908 0.00013 10.4385 0.00213C10.0598 0.00413 9.68422 0.00994 9.30194 0.01483C8.47145 0.0227318 7.64291 0.0818063 6.82353 0.19154C6.00529 0.303663 5.21269 0.515046 4.47253 0.81854C3.73327 1.1246 3.05779 1.5223 2.47059 1.9972C1.8803 2.47077 1.38826 3.01815 1.01337 3.61829C0.637445 4.21724 0.376778 4.85907 0.240371 5.52161C0.102668 6.18332 0.028568 6.85265 0.0187375 7.52361C0.00725999 7.83021 0.00604793 8.13783 0 8.44447V31.5587C0.00604793 31.8692 0.00725999 32.17 0.0187375 32.4806C0.028571 33.1516 0.102671 33.8209 0.240371 34.4825C0.376401 35.1455 0.637084 35.7877 1.01337 36.3868C1.38809 36.985 1.8802 37.5302 2.47059 38.0011C3.05556 38.4781 3.73148 38.8761 4.47253 39.1798C5.21268 39.4841 6.0052 39.6968 6.82353 39.8106C7.64305 39.9195 8.4715 39.9786 9.30194 39.9874C9.68422 39.9942 10.0598 39.9981 10.4385 39.9981C10.8908 40.0001 11.3389 40.0001 11.7925 40.0001H136.214C136.659 40.0001 137.11 40.0001 137.555 39.9981C137.932 39.9981 138.318 39.9942 138.695 39.9874C139.524 39.9791 140.351 39.92 141.169 39.8106C141.99 39.696 142.785 39.4834 143.529 39.1798C144.269 38.8759 144.944 38.478 145.529 38.0011C146.118 37.5284 146.611 36.9836 146.99 36.3868C147.364 35.7872 147.622 35.1451 147.756 34.4825C147.894 33.8208 147.971 33.1516 147.986 32.4806C147.99 32.17 147.99 31.8692 147.99 31.5587C148 31.1954 148 30.8341 148 30.4649V9.53626C148 9.17005 148 8.80677 147.99 8.44447C147.99 8.13783 147.99 7.83021 147.986 7.52357C147.971 6.85255 147.894 6.18337 147.756 5.52157C147.622 4.85941 147.363 4.21763 146.99 3.61825C146.227 2.41533 145.016 1.43616 143.529 0.81845C142.785 0.515697 141.99 0.30437 141.169 0.19145C140.351 0.0812328 139.524 0.0221378 138.695 0.01469C138.318 0.00981 137.932 0.00395 137.555 0.002C137.11 0 136.659 0 136.214 0V0.00013Z" fill="#A6A6A6"/>
<path d="M10.4446 39.1251C10.0677 39.1251 9.70002 39.1212 9.32615 39.1144C8.55164 39.1063 7.77895 39.0518 7.0144 38.9513C6.3015 38.8521 5.61089 38.6674 4.96535 38.4034C4.32573 38.1417 3.74235 37.7984 3.23755 37.3868C2.72544 36.9801 2.29909 36.5084 1.97539 35.9903C1.64812 35.4689 1.42163 34.91 1.30381 34.3331C1.17657 33.7133 1.10773 33.0865 1.09788 32.4581C1.09004 32.2472 1.07977 31.545 1.07977 31.545V8.44448C1.07977 8.44448 1.09071 7.75307 1.09794 7.54994C1.10737 6.92262 1.17581 6.29679 1.30267 5.67787C1.42071 5.09939 1.64737 4.53889 1.97482 4.01577C2.29733 3.49808 2.72132 3.026 3.23034 2.61782C3.73879 2.20576 4.32404 1.86074 4.96475 1.59535C5.6088 1.33223 6.2981 1.14887 7.00956 1.05141C7.77662 0.949973 8.552 0.895133 9.32919 0.887347L10.4452 0.875137H137.549L138.678 0.887837C139.448 0.895237 140.217 0.949587 140.977 1.05043C141.695 1.14911 142.392 1.33375 143.043 1.59828C144.327 2.13312 145.371 2.9793 146.03 4.01821C146.352 4.53772 146.575 5.09364 146.692 5.66713C146.82 6.29113 146.892 6.92188 146.907 7.55434C146.911 7.83754 146.911 8.14174 146.911 8.44448C146.92 8.81948 146.92 9.17641 146.92 9.53627V30.4649C146.92 30.8282 146.92 31.1827 146.911 31.5401C146.911 31.8653 146.911 32.1632 146.906 32.4698C146.891 33.091 146.821 33.7105 146.694 34.3233C146.579 34.9044 146.354 35.4677 146.026 35.9933C145.7 36.5058 145.277 36.9734 144.77 37.379C144.265 37.7928 143.681 38.1381 143.04 38.4015C142.39 38.6675 141.695 38.8529 140.977 38.9513C140.212 39.0523 139.439 39.1068 138.665 39.1144C138.303 39.1212 137.923 39.1251 137.555 39.1251L136.214 39.1271L10.4446 39.1251Z" fill="black"/>
<path d="M27.6491 20.7632C27.6612 19.8433 27.9099 18.9413 28.3723 18.1412C28.8346 17.3411 29.4955 16.6689 30.2935 16.187C29.7866 15.476 29.1178 14.8908 28.3404 14.478C27.5629 14.0652 26.6982 13.8361 25.8148 13.809C23.9305 13.6147 22.1037 14.9165 21.1434 14.9165C20.1646 14.9165 18.6862 13.8283 17.0942 13.8605C16.0644 13.8931 15.0608 14.1872 14.1812 14.7141C13.3016 15.241 12.5759 15.9827 12.0749 16.8669C9.90465 20.5573 11.5234 25.981 13.6024 28.964C14.6425 30.4247 15.8581 32.0564 17.4487 31.9985C19.0051 31.9351 19.5865 31.0237 21.4653 31.0237C23.3267 31.0237 23.8721 31.9985 25.4949 31.9617C27.1651 31.9351 28.2174 30.4945 29.221 29.02C29.9683 27.9792 30.5434 26.8289 30.9249 25.6116C29.9546 25.2085 29.1265 24.5338 28.544 23.6717C27.9615 22.8095 27.6502 21.7979 27.6491 20.7632V20.7632Z" fill="white"/>
<path d="M24.6684 11.8471C25.659 10.7734 26.1471 9.39337 26.0289 8.00002C24.5154 8.14354 23.1174 8.79661 22.1134 9.82912C21.6225 10.3335 21.2465 10.9203 21.007 11.556C20.7674 12.1917 20.669 12.8638 20.7173 13.5338C21.4743 13.5409 22.2232 13.3927 22.9076 13.1006C23.592 12.8084 24.194 12.3798 24.6684 11.8471Z" fill="white"/>
<path d="M51.3555 26.9288H46.0621L44.7909 30.3177H42.5488L47.5626 17.7795H49.892L54.9058 30.3177H52.6255L51.3555 26.9288ZM46.6103 25.3649H50.8062L48.7378 19.8649H48.6799L46.6103 25.3649Z" fill="white"/>
<path d="M65.734 25.7477C65.734 28.5884 64.05 30.4135 61.5087 30.4135C60.8649 30.4439 60.2247 30.31 59.6613 30.0272C59.0979 29.7443 58.6341 29.3239 58.3231 28.8142H58.275V33.342H56.1967V21.1765H58.2084V22.6969H58.2466C58.572 22.1896 59.0436 21.7714 59.6113 21.4868C60.179 21.2022 60.8215 21.0619 61.4705 21.0808C64.0401 21.0808 65.734 22.9148 65.734 25.7477ZM63.5978 25.7477C63.5978 23.8969 62.5385 22.6802 60.9222 22.6802C59.3343 22.6802 58.2663 23.9225 58.2663 25.7477C58.2663 27.5895 59.3343 28.8231 60.9222 28.8231C62.5385 28.8231 63.5978 27.6152 63.5978 25.7477Z" fill="white"/>
<path d="M76.8776 25.7477C76.8776 28.5884 75.1936 30.4135 72.6523 30.4135C72.0085 30.4439 71.3683 30.31 70.8049 30.0271C70.2415 29.7443 69.7777 29.3239 69.4667 28.8141H69.4186V33.3419H67.3403V21.1765H69.352V22.6969H69.3902C69.7156 22.1896 70.1872 21.7714 70.7549 21.4868C71.3226 21.2022 71.9651 21.0619 72.614 21.0808C75.1838 21.0808 76.8776 22.9148 76.8776 25.7477ZM74.7415 25.7477C74.7415 23.8969 73.6821 22.6801 72.0658 22.6801C70.4779 22.6801 69.4099 23.9225 69.4099 25.7477C69.4099 27.5895 70.4779 28.823 72.0658 28.823C73.6821 28.823 74.7415 27.6152 74.7415 25.7477H74.7415Z" fill="white"/>
<path d="M84.2427 26.8243C84.3967 28.0677 85.7345 28.8841 87.5626 28.8841C89.3143 28.8841 90.5746 28.0676 90.5746 26.9465C90.5746 25.9733 89.8145 25.3906 88.0147 24.9913L86.215 24.5998C83.665 24.0437 82.4811 22.967 82.4811 21.2197C82.4811 19.0564 84.5692 17.5705 87.5342 17.5705C90.4687 17.5705 92.4803 19.0564 92.548 21.2197H90.4501C90.3245 19.9685 89.1789 19.2132 87.5047 19.2132C85.8305 19.2132 84.6849 19.9774 84.6849 21.0896C84.6849 21.976 85.4166 22.4976 87.2066 22.8969L88.7366 23.2361C91.5859 23.8445 92.7697 24.8779 92.7697 26.7118C92.7697 29.0576 90.7002 30.5267 87.4086 30.5267C84.3289 30.5267 82.2496 29.0921 82.1152 26.8242L84.2427 26.8243Z" fill="white"/>
<path d="M97.255 19.0131V21.1764H99.1803V22.6624H97.255V27.7019C97.255 28.4848 97.6405 28.8496 98.4869 28.8496C98.7154 28.846 98.9436 28.8315 99.1705 28.8062V30.2833C98.79 30.3475 98.4032 30.3765 98.0162 30.37C95.9663 30.37 95.1669 29.6749 95.1669 27.902V22.6624H93.6948V21.1764H95.1669V19.0131H97.255Z" fill="white"/>
<path d="M100.295 25.7475C100.295 22.8713 102.172 21.0639 105.097 21.0639C108.033 21.0639 109.9 22.8712 109.9 25.7475C109.9 28.6316 108.043 30.4311 105.097 30.4311C102.153 30.4311 100.295 28.6316 100.295 25.7475ZM107.783 25.7475C107.783 23.7745 106.781 22.61 105.097 22.61C103.413 22.61 102.413 23.7834 102.413 25.7475C102.413 27.7284 103.413 28.884 105.097 28.884C106.781 28.884 107.783 27.7284 107.783 25.7475H107.783Z" fill="white"/>
<path d="M111.614 21.1764H113.596V22.7323H113.644C113.778 22.2464 114.093 21.8169 114.537 21.5161C114.98 21.2154 115.525 21.0616 116.079 21.0807C116.319 21.08 116.558 21.1035 116.791 21.1507V22.9059C116.489 22.8224 116.174 22.7841 115.858 22.7925C115.556 22.7814 115.255 22.8295 114.975 22.9334C114.696 23.0372 114.445 23.1945 114.239 23.3943C114.033 23.5941 113.878 23.8317 113.783 24.0909C113.689 24.35 113.658 24.6246 113.692 24.8956V30.3178H111.614L111.614 21.1764Z" fill="white"/>
<path d="M126.373 27.6328C126.094 29.2922 124.304 30.4311 122.014 30.4311C119.068 30.4311 117.24 28.6493 117.24 25.7909C117.24 22.9235 119.078 21.0639 121.926 21.0639C124.728 21.0639 126.489 22.8013 126.489 25.573V26.2159H119.338V26.3292C119.305 26.6657 119.352 27.0046 119.475 27.3235C119.598 27.6424 119.795 27.934 120.053 28.1789C120.31 28.4237 120.623 28.6164 120.969 28.7439C121.315 28.8714 121.688 28.9309 122.062 28.9185C122.553 28.9601 123.046 28.8574 123.467 28.6257C123.888 28.394 124.216 28.0458 124.4 27.6327L126.373 27.6328ZM119.348 24.9044H124.41C124.428 24.602 124.378 24.2992 124.261 24.0153C124.144 23.7314 123.963 23.4724 123.73 23.2545C123.496 23.0366 123.216 22.8647 122.905 22.7493C122.595 22.634 122.262 22.5778 121.926 22.5844C121.588 22.5825 121.252 22.6412 120.939 22.7571C120.626 22.8729 120.341 23.0436 120.102 23.2594C119.862 23.4751 119.672 23.7315 119.543 24.0138C119.413 24.2962 119.347 24.5989 119.348 24.9045V24.9044Z" fill="white"/>
<path d="M45.1559 10.3363H46.0668C46.2236 10.3539 46.3828 10.342 46.5342 10.3014C46.6857 10.2607 46.8262 10.1922 46.9469 10.1001C47.0675 10.0079 47.1658 9.89425 47.2354 9.76616C47.305 9.63806 47.3444 9.49834 47.3512 9.3558C47.3512 8.78855 46.8785 8.42212 46.0768 8.42212C45.9162 8.40185 45.7526 8.41085 45.5959 8.44858C45.4392 8.48632 45.2924 8.55203 45.1642 8.64183C45.0361 8.73163 44.9292 8.84371 44.8498 8.97144C44.7704 9.09916 44.7202 9.23996 44.7021 9.3855H43.7019C43.7191 9.1213 43.7964 8.86312 43.9289 8.62705C44.0614 8.39098 44.2463 8.18207 44.4722 8.01331C44.698 7.84456 44.9599 7.71959 45.2415 7.64617C45.5231 7.57275 45.8184 7.55247 46.1091 7.58657C47.4504 7.58657 48.3949 8.26456 48.3949 9.24053C48.398 9.56749 48.2769 9.88553 48.0516 10.1416C47.8264 10.3976 47.5107 10.5761 47.1572 10.6474V10.7198C47.5763 10.7366 47.9709 10.9025 48.2548 11.1812C48.5387 11.4599 48.6889 11.8288 48.6725 12.2072C48.6415 12.4792 48.5506 12.7429 48.4053 12.9828C48.2599 13.2228 48.063 13.4341 47.826 13.6044C47.5891 13.7747 47.3168 13.9006 47.0253 13.9747C46.7337 14.0488 46.4287 14.0695 46.1281 14.0358C45.8269 14.0729 45.5205 14.0548 45.2272 13.9827C44.9339 13.9106 44.6597 13.7859 44.4209 13.6161C44.1821 13.4462 43.9837 13.2347 43.8373 12.9941C43.691 12.7535 43.5999 12.4888 43.5693 12.2158H44.585C44.6463 12.8042 45.2451 13.1837 46.1281 13.1837C47.0112 13.1837 47.5876 12.7574 47.5876 12.1564C47.5876 11.5469 47.0446 11.1714 46.0958 11.1714H45.1559V10.3363Z" fill="white"/>
<path d="M49.8265 12.5741C49.8265 11.7386 50.5166 11.2569 51.7386 11.1884L53.1312 11.116V10.7153C53.1312 10.2251 52.7733 9.94822 52.0787 9.94822C51.5123 9.94822 51.121 10.136 51.0072 10.4641H50.0249C50.1286 9.66686 50.9604 9.15547 52.1267 9.15547C53.4156 9.15547 54.1425 9.7348 54.1425 10.7153V13.8868H53.1647V13.2345H53.0844C52.9215 13.4685 52.6927 13.6593 52.4214 13.7873C52.1501 13.9153 51.846 13.9761 51.5402 13.9633C51.3244 13.9836 51.1062 13.9628 50.8998 13.9023C50.6935 13.8418 50.5034 13.7429 50.342 13.612C50.1805 13.4811 50.0512 13.3211 49.9624 13.1424C49.8736 12.9636 49.8273 12.77 49.8265 12.5741V12.5741ZM53.1312 12.1775V11.7894L51.8757 11.8619C51.1677 11.9047 50.8466 12.1221 50.8466 12.5313C50.8466 12.9491 51.248 13.1922 51.8 13.1922C51.9617 13.207 52.1251 13.1923 52.2803 13.1489C52.4356 13.1055 52.5797 13.0343 52.7039 12.9397C52.8281 12.845 52.9299 12.7287 53.0033 12.5978C53.0768 12.4669 53.1203 12.3239 53.1312 12.1775V12.1775Z" fill="white"/>
<path d="M56.8352 10.0162V13.8869H55.8206V9.24512H59.2056V10.0162L56.8352 10.0162Z" fill="white"/>
<path d="M65.3546 11.5639C65.3546 13.0387 64.5284 13.9633 63.2306 13.9633C62.912 13.983 62.5938 13.92 62.3135 13.7819C62.0332 13.6438 61.8025 13.4362 61.6484 13.1837H61.5682V15.4301H60.5535V9.24506H61.5302V10.0122H61.6061C61.7629 9.7508 61.9966 9.53364 62.2815 9.38468C62.5664 9.23572 62.8914 9.16076 63.2205 9.16808C64.5284 9.16804 65.3546 10.0886 65.3546 11.5639ZM64.311 11.5639C64.311 10.5834 63.797 9.991 62.9373 9.991C62.0833 9.991 61.5492 10.596 61.5492 11.568C61.5492 12.5354 62.0833 13.1409 62.9329 13.1409C63.797 13.1409 64.311 12.5484 64.311 11.5639Z" fill="white"/>
<path d="M66.706 15.5494V14.7607C66.8158 14.7733 66.9264 14.779 67.0371 14.7778C67.2532 14.7922 67.4677 14.7341 67.6393 14.6146C67.8109 14.495 67.9276 14.3225 67.9669 14.13L68.0428 13.904L66.1819 9.24512H67.2868L68.5758 12.9321H68.656L69.9405 9.24512H71.0164L69.0998 14.0787C68.6605 15.2081 68.1744 15.5706 67.1263 15.5706C67.0416 15.5705 66.8007 15.562 66.706 15.5494Z" fill="white"/>
<path d="M71.8069 12.5696H72.8171C72.9163 12.9788 73.3412 13.1922 73.9354 13.1922C74.6111 13.1922 75.0259 12.9234 75.0259 12.5057C75.0259 12.0582 74.6535 11.8448 73.9354 11.8448H73.1661V11.1331H73.922C74.5353 11.1331 74.8475 10.9202 74.8475 10.5321C74.8475 10.1914 74.5453 9.93114 73.922 9.93114C73.3545 9.93114 72.9398 10.1486 72.8739 10.515H71.8961C71.9693 10.094 72.2225 9.71563 72.6013 9.46139C72.9802 9.20715 73.4544 9.09731 73.922 9.1555C75.1441 9.1555 75.8431 9.65431 75.8431 10.4385C75.8489 10.6569 75.7714 10.8704 75.6236 11.0434C75.4759 11.2164 75.2668 11.3383 75.0314 11.3888V11.4613C75.3117 11.4939 75.5689 11.6183 75.7543 11.8108C75.9397 12.0033 76.0403 12.2506 76.0372 12.5057C76.0372 13.3881 75.2054 13.9719 73.9354 13.9719C72.8127 13.9719 71.9006 13.5073 71.8069 12.5696Z" fill="white"/>
<path d="M77.4984 13.8869V9.24512H78.5041V12.4378H78.5843L80.9536 9.24513H81.9593V13.8869H80.9536V10.6771H80.8778L78.5041 13.8869L77.4984 13.8869Z" fill="white"/>
<path d="M87.4996 10.0162H85.8806V13.8868H84.8649V10.0162H83.2459V9.24512H87.4996V10.0162Z" fill="white"/>
<path d="M92.9652 12.6335C92.8269 13.0577 92.528 13.4246 92.1206 13.6701C91.7132 13.9155 91.2233 14.0239 90.7363 13.9764C90.3976 13.9845 90.061 13.9259 89.7499 13.8048C89.4388 13.6836 89.1606 13.5028 88.9346 13.2748C88.7087 13.0469 88.5404 12.7772 88.4414 12.4847C88.3424 12.1921 88.3151 11.8836 88.3615 11.5805C88.3164 11.2766 88.3441 10.9674 88.4429 10.6739C88.5416 10.3805 88.709 10.1096 88.9338 9.87966C89.1586 9.64971 89.4354 9.46604 89.7457 9.3411C90.0559 9.21615 90.3922 9.15284 90.7319 9.15546C92.1624 9.15546 93.0265 10.0379 93.0265 11.4954V11.8151H89.3962V11.8664C89.3801 12.0368 89.4037 12.2084 89.4654 12.37C89.5271 12.5317 89.6256 12.6799 89.7546 12.8051C89.8835 12.9304 90.0401 13.0298 90.2141 13.0972C90.3882 13.1646 90.576 13.1983 90.7653 13.1962C91.0079 13.2224 91.2536 13.1829 91.4712 13.0827C91.6887 12.9825 91.8684 12.8261 91.9873 12.6335L92.9652 12.6335ZM89.3961 11.1376H91.9918C92.0046 10.9819 91.9812 10.8255 91.9231 10.6784C91.865 10.5314 91.7735 10.3969 91.6544 10.2837C91.5354 10.1704 91.3914 10.0809 91.2317 10.0209C91.0721 9.96088 90.9003 9.93167 90.7274 9.93514C90.5519 9.93298 90.3776 9.96262 90.215 10.0223C90.0524 10.082 89.9047 10.1705 89.7805 10.2826C89.6564 10.3947 89.5585 10.5281 89.4925 10.6749C89.4264 10.8218 89.3937 10.9791 89.3962 11.1376H89.3961Z" fill="white"/>
<path d="M97.2667 9.24512H99.5847C100.59 9.24512 101.18 9.70517 101.18 10.4254C101.182 10.654 101.096 10.8761 100.938 11.0545C100.78 11.233 100.559 11.3571 100.312 11.4059V11.4784C100.612 11.4955 100.893 11.6161 101.098 11.8153C101.303 12.0144 101.415 12.2769 101.411 12.5485C101.411 13.3584 100.737 13.8869 99.6082 13.8869H97.2667V9.24512ZM98.2724 9.94828V11.1502H99.2781C99.8914 11.1502 100.185 10.9373 100.185 10.5447C100.185 10.1828 99.9293 9.94827 99.3908 9.94827L98.2724 9.94828ZM98.2724 11.8237V13.1837H99.4755C100.075 13.1837 100.396 12.9447 100.396 12.5057C100.396 12.0412 100.033 11.8237 99.3484 11.8237L98.2724 11.8237Z" fill="white"/>
</g>
<defs>
<clipPath id="clip0_1_612">
<rect width="148" height="40" fill="white"/>
</clipPath>
</defs>
</svg>
